<?xml version="1.0" standalone="no"?><!DOCTYPE svg PUBLIC "-//W3C//DTD SVG 1.1//EN" "http://www.w3.org/Graphics/SVG/1.1/DTD/svg11.dtd"><svg t="1751973596040" class="icon" viewBox="0 0 1024 1024" version="1.1" xmlns="http://www.w3.org/2000/svg" p-id="27288" xmlns:xlink="http://www.w3.org/1999/xlink" width="64" height="64"><path d="M0 0h1024v1024H0z" fill="#2c2c2c" opacity=".01" p-id="27289"></path><path d="M238.912 136.512a102.4 102.4 0 0 0-102.4 102.4v546.176a102.4 102.4 0 0 0 102.4 102.4h512V238.912a102.4 102.4 0 0 0-102.4-102.4h-409.6z m409.6-68.224c81.152 0 151.04 57.024 167.296 136.512h37.504a102.4 102.4 0 0 1 102.4 102.4v546.112a102.4 102.4 0 0 1-102.4 102.4h-614.4a170.688 170.688 0 0 1-170.624-170.624V238.912a170.688 170.688 0 0 1 170.624-170.624h409.6z m204.8 819.2a34.112 34.112 0 0 0 34.176-34.176V307.2a34.112 34.112 0 0 0-34.176-34.112H819.2v614.4h34.112z" fill="#2c2c2c" p-id="27290"></path><path d="M443.712 580.288a34.112 34.112 0 0 1 0 68.224h-204.8a34.112 34.112 0 1 1 0-68.224h204.8z m204.8-136.576a34.112 34.112 0 1 1 0 68.288h-409.6a34.112 34.112 0 0 1 0-68.288z m0-136.512a34.112 34.112 0 1 1 0 68.288h-409.6a34.112 34.112 0 1 1 0-68.288z" fill="#2c2c2c" p-id="27291"></path></svg>