<?xml version="1.0" standalone="no"?><!DOCTYPE svg PUBLIC "-//W3C//DTD SVG 1.1//EN" "http://www.w3.org/Graphics/SVG/1.1/DTD/svg11.dtd"><svg t="1751973687743" class="icon" viewBox="0 0 1024 1024" version="1.1" xmlns="http://www.w3.org/2000/svg" p-id="31256" xmlns:xlink="http://www.w3.org/1999/xlink" width="64" height="64"><path d="M938 420.2c-23.3-38.3-58.8-58.9-105.6-61.2-2.8-0.3-5.5-0.5-8.1-0.5l-150.4-0.5c6.8-30.4 10.5-61.2 10.5-89.7 0-29.2-3.2-58.7-9.5-87.6-0.5-2.2-1.2-4.3-2.1-6.4-16.3-59.5-69-100.5-130.3-100.5-72.7 0-127.5 59.6-127.5 138.6l-0.1 2c-0.1 2.1-0.1 4.8 0 7.9-3.1 82.3-70.8 154.2-155.2 164.8L140.8 389c-2-0.2-3.9-0.3-5.9-0.3-38.6 0-70 31.7-70 70.7l-0.3 420c0 38.7 31.4 70.2 70 70.2h130.5l495.7-0.9c27.4 0 44.6-7.7 65.1-21 20.2-13.2 36.7-31.4 47.6-52.9 3.8-6.1 6.6-12.6 8.4-19.4 0.1-0.4 0.2-0.9 0.3-1.3l74-333.1c1.6-6.5 2.3-13.1 2-19.8 1.6-28.7-5.3-56.6-20.2-81z m-801.5 40.1c1.1 0.1 2.2 0.1 3.3 0.1l86.3-1.4v419.1h-89.9l0.3-417.8z m750 44.8l-73.7 332.3c-0.9 1.3-1.7 2.7-2.4 4.1-5.4 10.9-13.3 19.8-23.4 26.4-13.1 8.5-16.9 9.4-26.5 9.4l-462.9 0.8V452.5c106.7-26.3 185.8-120.2 188.8-230 0-1.5 0-2.4-0.1-3.9v-2.1c0-1.4 0.1-2.8 0.1-4.2 0-33.4 19.2-67.1 56-67.1 29.8 0 55.3 21 62.2 51 0.4 1.7 0.9 3.3 1.5 4.9 4.5 22.2 6.8 44.8 6.8 67.2 0 35.3-7.3 76.8-19.9 113.7-3.7 10.9-2 22.9 4.7 32.3 6.7 9.4 17.5 15 29 15l197.7 0.7c1.2 0.2 2.4 0.3 3.6 0.3 23.4 1 38.1 9 49 27 7.5 12.3 10.9 26.5 9.8 41.1-0.1 1.8-0.1 3.6 0 5.4-0.1 0.5-0.2 0.9-0.3 1.3z m0 0" fill="#040000" p-id="31257"></path></svg>